<svg xmlns="http://www.w3.org/2000/svg" xmlns:xlink="http://www.w3.org/1999/xlink" zoomAndPan="magnify" viewBox="0 0 429.75 209.249992" preserveAspectRatio="xMidYMid meet" version="1.0"><defs><g/></defs><g fill="#1a1a1a" fill-opacity="1"><g transform="translate(25.317663, 139.451909)"><g><path d="M 28.46875 1.453125 C 23.320312 1.453125 19.097656 0.628906 15.796875 -1.015625 C 12.503906 -2.671875 10.050781 -4.863281 8.4375 -7.59375 C 6.832031 -10.332031 6.03125 -13.351562 6.03125 -16.65625 C 6.03125 -22.195312 8.203125 -26.695312 12.546875 -30.15625 C 16.890625 -33.625 23.40625 -35.359375 32.09375 -35.359375 L 47.296875 -35.359375 L 47.296875 -36.796875 C 47.296875 -40.898438 46.128906 -43.914062 43.796875 -45.84375 C 41.460938 -47.78125 38.566406 -48.75 35.109375 -48.75 C 31.972656 -48.75 29.238281 -48.003906 26.90625 -46.515625 C 24.570312 -45.023438 23.125 -42.832031 22.5625 -39.9375 L 7.484375 -39.9375 C 7.878906 -44.28125 9.34375 -48.0625 11.875 -51.28125 C 14.414062 -54.5 17.695312 -56.972656 21.71875 -58.703125 C 25.738281 -60.429688 30.242188 -61.296875 35.234375 -61.296875 C 43.753906 -61.296875 50.46875 -59.160156 55.375 -54.890625 C 60.28125 -50.628906 62.734375 -44.597656 62.734375 -36.796875 L 62.734375 0 L 49.59375 0 L 48.140625 -9.65625 C 46.367188 -6.4375 43.894531 -3.78125 40.71875 -1.6875 C 37.539062 0.40625 33.457031 1.453125 28.46875 1.453125 Z M 31.96875 -10.625 C 36.394531 -10.625 39.832031 -12.070312 42.28125 -14.96875 C 44.738281 -17.863281 46.289062 -21.441406 46.9375 -25.703125 L 33.78125 -25.703125 C 29.675781 -25.703125 26.738281 -24.957031 24.96875 -23.46875 C 23.207031 -21.976562 22.328125 -20.148438 22.328125 -17.984375 C 22.328125 -15.648438 23.207031 -13.835938 24.96875 -12.546875 C 26.738281 -11.265625 29.070312 -10.625 31.96875 -10.625 Z M 31.96875 -10.625 "/></g></g></g><g fill="#1a1a1a" fill-opacity="1"><g transform="translate(90.104772, 139.451909)"><g><path d="M 7.84375 0 L 7.84375 -59.84375 L 21.484375 -59.84375 L 22.796875 -51.765625 C 24.734375 -54.660156 27.289062 -56.972656 30.46875 -58.703125 C 33.644531 -60.429688 37.320312 -61.296875 41.5 -61.296875 C 50.75 -61.296875 57.304688 -57.71875 61.171875 -50.5625 C 63.347656 -53.851562 66.265625 -56.460938 69.921875 -58.390625 C 73.578125 -60.328125 77.578125 -61.296875 81.921875 -61.296875 C 89.722656 -61.296875 95.710938 -58.960938 99.890625 -54.296875 C 104.078125 -49.628906 106.171875 -42.789062 106.171875 -33.78125 L 106.171875 0 L 90.734375 0 L 90.734375 -32.328125 C 90.734375 -37.484375 89.75 -41.425781 87.78125 -44.15625 C 85.8125 -46.894531 82.773438 -48.265625 78.671875 -48.265625 C 74.484375 -48.265625 71.125 -46.734375 68.59375 -43.671875 C 66.0625 -40.617188 64.796875 -36.359375 64.796875 -30.890625 L 64.796875 0 L 49.34375 0 L 49.34375 -32.328125 C 49.34375 -37.484375 48.335938 -41.425781 46.328125 -44.15625 C 44.316406 -46.894531 41.222656 -48.265625 37.046875 -48.265625 C 32.941406 -48.265625 29.617188 -46.734375 27.078125 -43.671875 C 24.546875 -40.617188 23.28125 -36.359375 23.28125 -30.890625 L 23.28125 0 Z M 7.84375 0 "/></g></g></g><g fill="#1a1a1a" fill-opacity="1"><g transform="translate(198.324886, 139.451909)"><g><path d="M 36.921875 1.453125 C 30.890625 1.453125 25.539062 0.164062 20.875 -2.40625 C 16.207031 -4.988281 12.546875 -8.609375 9.890625 -13.265625 C 7.234375 -17.929688 5.90625 -23.320312 5.90625 -29.4375 C 5.90625 -35.632812 7.210938 -41.144531 9.828125 -45.96875 C 12.441406 -50.789062 16.0625 -54.550781 20.6875 -57.25 C 25.3125 -59.945312 30.765625 -61.296875 37.046875 -61.296875 C 42.910156 -61.296875 48.09375 -60.007812 52.59375 -57.4375 C 57.101562 -54.863281 60.625 -51.34375 63.15625 -46.875 C 65.695312 -42.40625 66.96875 -37.4375 66.96875 -31.96875 C 66.96875 -31.082031 66.945312 -30.15625 66.90625 -29.1875 C 66.863281 -28.226562 66.800781 -27.226562 66.71875 -26.1875 L 21.234375 -26.1875 C 21.554688 -21.519531 23.1875 -17.859375 26.125 -15.203125 C 29.0625 -12.546875 32.617188 -11.21875 36.796875 -11.21875 C 39.929688 -11.21875 42.566406 -11.921875 44.703125 -13.328125 C 46.835938 -14.734375 48.425781 -16.566406 49.46875 -18.828125 L 65.15625 -18.828125 C 64.03125 -15.046875 62.160156 -11.601562 59.546875 -8.5 C 56.929688 -5.40625 53.710938 -2.972656 49.890625 -1.203125 C 46.066406 0.566406 41.742188 1.453125 36.921875 1.453125 Z M 37.046875 -48.75 C 33.265625 -48.75 29.925781 -47.679688 27.03125 -45.546875 C 24.132812 -43.410156 22.285156 -40.171875 21.484375 -35.828125 L 51.28125 -35.828125 C 51.039062 -39.773438 49.59375 -42.914062 46.9375 -45.25 C 44.28125 -47.582031 40.984375 -48.75 37.046875 -48.75 Z M 37.046875 -48.75 "/></g></g></g><g fill="#1a1a1a" fill-opacity="1"><g transform="translate(265.645586, 139.451909)"><g><path d="M 7.84375 0 L 7.84375 -59.84375 L 21.484375 -59.84375 L 22.6875 -49.703125 C 24.53125 -53.242188 27.203125 -56.0625 30.703125 -58.15625 C 34.203125 -60.25 38.328125 -61.296875 43.078125 -61.296875 C 50.472656 -61.296875 56.222656 -58.960938 60.328125 -54.296875 C 64.429688 -49.628906 66.484375 -42.789062 66.484375 -33.78125 L 66.484375 0 L 51.03125 0 L 51.03125 -32.328125 C 51.03125 -37.484375 49.984375 -41.425781 47.890625 -44.15625 C 45.804688 -46.894531 42.550781 -48.265625 38.125 -48.265625 C 33.78125 -48.265625 30.21875 -46.734375 27.4375 -43.671875 C 24.664062 -40.617188 23.28125 -36.359375 23.28125 -30.890625 L 23.28125 0 Z M 7.84375 0 "/></g></g></g><g fill="#1a1a1a" fill-opacity="1"><g transform="translate(334.172755, 139.451909)"><g><path d="M 28.46875 1.453125 C 23.320312 1.453125 19.097656 0.628906 15.796875 -1.015625 C 12.503906 -2.671875 10.050781 -4.863281 8.4375 -7.59375 C 6.832031 -10.332031 6.03125 -13.351562 6.03125 -16.65625 C 6.03125 -22.195312 8.203125 -26.695312 12.546875 -30.15625 C 16.890625 -33.625 23.40625 -35.359375 32.09375 -35.359375 L 47.296875 -35.359375 L 47.296875 -36.796875 C 47.296875 -40.898438 46.128906 -43.914062 43.796875 -45.84375 C 41.460938 -47.78125 38.566406 -48.75 35.109375 -48.75 C 31.972656 -48.75 29.238281 -48.003906 26.90625 -46.515625 C 24.570312 -45.023438 23.125 -42.832031 22.5625 -39.9375 L 7.484375 -39.9375 C 7.878906 -44.28125 9.34375 -48.0625 11.875 -51.28125 C 14.414062 -54.5 17.695312 -56.972656 21.71875 -58.703125 C 25.738281 -60.429688 30.242188 -61.296875 35.234375 -61.296875 C 43.753906 -61.296875 50.46875 -59.160156 55.375 -54.890625 C 60.28125 -50.628906 62.734375 -44.597656 62.734375 -36.796875 L 62.734375 0 L 49.59375 0 L 48.140625 -9.65625 C 46.367188 -6.4375 43.894531 -3.78125 40.71875 -1.6875 C 37.539062 0.40625 33.457031 1.453125 28.46875 1.453125 Z M 31.96875 -10.625 C 36.394531 -10.625 39.832031 -12.070312 42.28125 -14.96875 C 44.738281 -17.863281 46.289062 -21.441406 46.9375 -25.703125 L 33.78125 -25.703125 C 29.675781 -25.703125 26.738281 -24.957031 24.96875 -23.46875 C 23.207031 -21.976562 22.328125 -20.148438 22.328125 -17.984375 C 22.328125 -15.648438 23.207031 -13.835938 24.96875 -12.546875 C 26.738281 -11.265625 29.070312 -10.625 31.96875 -10.625 Z M 31.96875 -10.625 "/></g></g></g><g fill="#f5b400" fill-opacity="1"><g transform="translate(79.901414, 180.626856)"><g><path d="M 4.40625 -20.703125 C 3.726562 -20.703125 3.15625 -20.929688 2.6875 -21.390625 C 2.21875 -21.859375 1.984375 -22.4375 1.984375 -23.125 C 1.984375 -23.8125 2.21875 -24.382812 2.6875 -24.84375 C 3.15625 -25.3125 3.726562 -25.546875 4.40625 -25.546875 C 5.070312 -25.546875 5.632812 -25.3125 6.09375 -24.84375 C 6.5625 -24.382812 6.796875 -23.8125 6.796875 -23.125 C 6.796875 -22.4375 6.5625 -21.859375 6.09375 -21.390625 C 5.632812 -20.929688 5.070312 -20.703125 4.40625 -20.703125 Z M 6.265625 -18.28125 L 6.265625 0 L 2.484375 0 L 2.484375 -18.28125 Z M 6.265625 -18.28125 "/></g></g></g><g fill="#f5b400" fill-opacity="1"><g transform="translate(88.655082, 180.626856)"><g><path d="M 11.703125 -18.578125 C 13.140625 -18.578125 14.425781 -18.273438 15.5625 -17.671875 C 16.707031 -17.078125 17.597656 -16.191406 18.234375 -15.015625 C 18.878906 -13.847656 19.203125 -12.4375 19.203125 -10.78125 L 19.203125 0 L 15.453125 0 L 15.453125 -10.21875 C 15.453125 -11.851562 15.039062 -13.109375 14.21875 -13.984375 C 13.40625 -14.859375 12.289062 -15.296875 10.875 -15.296875 C 9.457031 -15.296875 8.332031 -14.859375 7.5 -13.984375 C 6.675781 -13.109375 6.265625 -11.851562 6.265625 -10.21875 L 6.265625 0 L 2.484375 0 L 2.484375 -18.28125 L 6.265625 -18.28125 L 6.265625 -16.1875 C 6.890625 -16.9375 7.679688 -17.519531 8.640625 -17.9375 C 9.597656 -18.363281 10.617188 -18.578125 11.703125 -18.578125 Z M 11.703125 -18.578125 "/></g></g></g><g fill="#f5b400" fill-opacity="1"><g transform="translate(110.17454, 180.626856)"><g><path d="M 9.125 0.296875 C 7.6875 0.296875 6.394531 0.0351562 5.25 -0.484375 C 4.113281 -1.003906 3.210938 -1.710938 2.546875 -2.609375 C 1.890625 -3.503906 1.539062 -4.503906 1.5 -5.609375 L 5.40625 -5.609375 C 5.46875 -4.828125 5.835938 -4.175781 6.515625 -3.65625 C 7.191406 -3.144531 8.039062 -2.890625 9.0625 -2.890625 C 10.113281 -2.890625 10.929688 -3.09375 11.515625 -3.5 C 12.109375 -3.90625 12.40625 -4.429688 12.40625 -5.078125 C 12.40625 -5.765625 12.078125 -6.269531 11.421875 -6.59375 C 10.773438 -6.925781 9.742188 -7.296875 8.328125 -7.703125 C 6.953125 -8.078125 5.832031 -8.441406 4.96875 -8.796875 C 4.113281 -9.148438 3.367188 -9.691406 2.734375 -10.421875 C 2.109375 -11.148438 1.796875 -12.109375 1.796875 -13.296875 C 1.796875 -14.273438 2.082031 -15.164062 2.65625 -15.96875 C 3.226562 -16.78125 4.050781 -17.414062 5.125 -17.875 C 6.195312 -18.34375 7.429688 -18.578125 8.828125 -18.578125 C 10.898438 -18.578125 12.570312 -18.050781 13.84375 -17 C 15.113281 -15.945312 15.796875 -14.515625 15.890625 -12.703125 L 12.109375 -12.703125 C 12.046875 -13.523438 11.710938 -14.175781 11.109375 -14.65625 C 10.515625 -15.144531 9.707031 -15.390625 8.6875 -15.390625 C 7.695312 -15.390625 6.9375 -15.203125 6.40625 -14.828125 C 5.875 -14.453125 5.609375 -13.953125 5.609375 -13.328125 C 5.609375 -12.847656 5.785156 -12.441406 6.140625 -12.109375 C 6.492188 -11.773438 6.921875 -11.515625 7.421875 -11.328125 C 7.929688 -11.140625 8.6875 -10.898438 9.6875 -10.609375 C 11.007812 -10.253906 12.097656 -9.894531 12.953125 -9.53125 C 13.804688 -9.164062 14.539062 -8.628906 15.15625 -7.921875 C 15.78125 -7.210938 16.101562 -6.273438 16.125 -5.109375 C 16.125 -4.066406 15.832031 -3.132812 15.25 -2.3125 C 14.675781 -1.5 13.863281 -0.859375 12.8125 -0.390625 C 11.769531 0.0664062 10.539062 0.296875 9.125 0.296875 Z M 9.125 0.296875 "/></g></g></g><g fill="#f5b400" fill-opacity="1"><g transform="translate(127.88082, 180.626856)"><g><path d="M 6.90625 -15.1875 L 6.90625 -5.078125 C 6.90625 -4.390625 7.0625 -3.894531 7.375 -3.59375 C 7.695312 -3.300781 8.242188 -3.15625 9.015625 -3.15625 L 11.34375 -3.15625 L 11.34375 0 L 8.359375 0 C 6.660156 0 5.351562 -0.394531 4.4375 -1.1875 C 3.53125 -1.988281 3.078125 -3.285156 3.078125 -5.078125 L 3.078125 -15.1875 L 0.921875 -15.1875 L 0.921875 -18.28125 L 3.078125 -18.28125 L 3.078125 -22.828125 L 6.90625 -22.828125 L 6.90625 -18.28125 L 11.34375 -18.28125 L 11.34375 -15.1875 Z M 6.90625 -15.1875 "/></g></g></g><g fill="#f5b400" fill-opacity="1"><g transform="translate(140.215547, 180.626856)"><g><path d="M 1.234375 -9.21875 C 1.234375 -11.050781 1.613281 -12.675781 2.375 -14.09375 C 3.132812 -15.507812 4.171875 -16.609375 5.484375 -17.390625 C 6.804688 -18.179688 8.265625 -18.578125 9.859375 -18.578125 C 11.296875 -18.578125 12.546875 -18.296875 13.609375 -17.734375 C 14.679688 -17.171875 15.539062 -16.46875 16.1875 -15.625 L 16.1875 -18.28125 L 20 -18.28125 L 20 0 L 16.1875 0 L 16.1875 -2.71875 C 15.539062 -1.851562 14.664062 -1.132812 13.5625 -0.5625 C 12.457031 0.0078125 11.195312 0.296875 9.78125 0.296875 C 8.21875 0.296875 6.78125 -0.101562 5.46875 -0.90625 C 4.164062 -1.71875 3.132812 -2.847656 2.375 -4.296875 C 1.613281 -5.742188 1.234375 -7.382812 1.234375 -9.21875 Z M 16.1875 -9.15625 C 16.1875 -10.414062 15.925781 -11.507812 15.40625 -12.4375 C 14.882812 -13.363281 14.203125 -14.070312 13.359375 -14.5625 C 12.523438 -15.050781 11.617188 -15.296875 10.640625 -15.296875 C 9.671875 -15.296875 8.765625 -15.054688 7.921875 -14.578125 C 7.085938 -14.097656 6.410156 -13.398438 5.890625 -12.484375 C 5.367188 -11.566406 5.109375 -10.476562 5.109375 -9.21875 C 5.109375 -7.957031 5.367188 -6.851562 5.890625 -5.90625 C 6.410156 -4.957031 7.09375 -4.234375 7.9375 -3.734375 C 8.789062 -3.234375 9.691406 -2.984375 10.640625 -2.984375 C 11.617188 -2.984375 12.523438 -3.222656 13.359375 -3.703125 C 14.203125 -4.191406 14.882812 -4.90625 15.40625 -5.84375 C 15.925781 -6.789062 16.1875 -7.894531 16.1875 -9.15625 Z M 16.1875 -9.15625 "/></g></g></g><g fill="#f5b400" fill-opacity="1"><g transform="translate(162.696584, 180.626856)"><g><path d="M 11.703125 -18.578125 C 13.140625 -18.578125 14.425781 -18.273438 15.5625 -17.671875 C 16.707031 -17.078125 17.597656 -16.191406 18.234375 -15.015625 C 18.878906 -13.847656 19.203125 -12.4375 19.203125 -10.78125 L 19.203125 0 L 15.453125 0 L 15.453125 -10.21875 C 15.453125 -11.851562 15.039062 -13.109375 14.21875 -13.984375 C 13.40625 -14.859375 12.289062 -15.296875 10.875 -15.296875 C 9.457031 -15.296875 8.332031 -14.859375 7.5 -13.984375 C 6.675781 -13.109375 6.265625 -11.851562 6.265625 -10.21875 L 6.265625 0 L 2.484375 0 L 2.484375 -18.28125 L 6.265625 -18.28125 L 6.265625 -16.1875 C 6.890625 -16.9375 7.679688 -17.519531 8.640625 -17.9375 C 9.597656 -18.363281 10.617188 -18.578125 11.703125 -18.578125 Z M 11.703125 -18.578125 "/></g></g></g><g fill="#f5b400" fill-opacity="1"><g transform="translate(184.216041, 180.626856)"><g><path d="M 6.90625 -15.1875 L 6.90625 -5.078125 C 6.90625 -4.390625 7.0625 -3.894531 7.375 -3.59375 C 7.695312 -3.300781 8.242188 -3.15625 9.015625 -3.15625 L 11.34375 -3.15625 L 11.34375 0 L 8.359375 0 C 6.660156 0 5.351562 -0.394531 4.4375 -1.1875 C 3.53125 -1.988281 3.078125 -3.285156 3.078125 -5.078125 L 3.078125 -15.1875 L 0.921875 -15.1875 L 0.921875 -18.28125 L 3.078125 -18.28125 L 3.078125 -22.828125 L 6.90625 -22.828125 L 6.90625 -18.28125 L 11.34375 -18.28125 L 11.34375 -15.1875 Z M 6.90625 -15.1875 "/></g></g></g><g fill="#f5b400" fill-opacity="1"><g transform="translate(196.550768, 180.626856)"><g/></g></g><g fill="#f5b400" fill-opacity="1"><g transform="translate(205.171807, 180.626856)"><g><path d="M 6.265625 -15.59375 C 6.910156 -16.425781 7.785156 -17.128906 8.890625 -17.703125 C 9.992188 -18.285156 11.242188 -18.578125 12.640625 -18.578125 C 14.234375 -18.578125 15.6875 -18.179688 17 -17.390625 C 18.3125 -16.609375 19.34375 -15.507812 20.09375 -14.09375 C 20.851562 -12.675781 21.234375 -11.050781 21.234375 -9.21875 C 21.234375 -7.382812 20.851562 -5.742188 20.09375 -4.296875 C 19.34375 -2.847656 18.3125 -1.71875 17 -0.90625 C 15.6875 -0.101562 14.234375 0.296875 12.640625 0.296875 C 11.242188 0.296875 10.003906 0.015625 8.921875 -0.546875 C 7.835938 -1.109375 6.953125 -1.8125 6.265625 -2.65625 L 6.265625 8.6875 L 2.484375 8.6875 L 2.484375 -18.28125 L 6.265625 -18.28125 Z M 17.375 -9.21875 C 17.375 -10.476562 17.113281 -11.566406 16.59375 -12.484375 C 16.082031 -13.398438 15.398438 -14.097656 14.546875 -14.578125 C 13.691406 -15.054688 12.78125 -15.296875 11.8125 -15.296875 C 10.851562 -15.296875 9.945312 -15.050781 9.09375 -14.5625 C 8.25 -14.070312 7.566406 -13.363281 7.046875 -12.4375 C 6.523438 -11.507812 6.265625 -10.414062 6.265625 -9.15625 C 6.265625 -7.894531 6.523438 -6.789062 7.046875 -5.84375 C 7.566406 -4.90625 8.25 -4.191406 9.09375 -3.703125 C 9.945312 -3.222656 10.851562 -2.984375 11.8125 -2.984375 C 12.78125 -2.984375 13.691406 -3.234375 14.546875 -3.734375 C 15.398438 -4.234375 16.082031 -4.957031 16.59375 -5.90625 C 17.113281 -6.851562 17.375 -7.957031 17.375 -9.21875 Z M 17.375 -9.21875 "/></g></g></g><g fill="#f5b400" fill-opacity="1"><g transform="translate(227.652844, 180.626856)"><g><path d="M 6.265625 -15.625 C 6.816406 -16.550781 7.550781 -17.273438 8.46875 -17.796875 C 9.394531 -18.316406 10.488281 -18.578125 11.75 -18.578125 L 11.75 -14.65625 L 10.78125 -14.65625 C 9.300781 -14.65625 8.175781 -14.28125 7.40625 -13.53125 C 6.644531 -12.78125 6.265625 -11.476562 6.265625 -9.625 L 6.265625 0 L 2.484375 0 L 2.484375 -18.28125 L 6.265625 -18.28125 Z M 6.265625 -15.625 "/></g></g></g><g fill="#f5b400" fill-opacity="1"><g transform="translate(240.385459, 180.626856)"><g><path d="M 4.40625 -20.703125 C 3.726562 -20.703125 3.15625 -20.929688 2.6875 -21.390625 C 2.21875 -21.859375 1.984375 -22.4375 1.984375 -23.125 C 1.984375 -23.8125 2.21875 -24.382812 2.6875 -24.84375 C 3.15625 -25.3125 3.726562 -25.546875 4.40625 -25.546875 C 5.070312 -25.546875 5.632812 -25.3125 6.09375 -24.84375 C 6.5625 -24.382812 6.796875 -23.8125 6.796875 -23.125 C 6.796875 -22.4375 6.5625 -21.859375 6.09375 -21.390625 C 5.632812 -20.929688 5.070312 -20.703125 4.40625 -20.703125 Z M 6.265625 -18.28125 L 6.265625 0 L 2.484375 0 L 2.484375 -18.28125 Z M 6.265625 -18.28125 "/></g></g></g><g fill="#f5b400" fill-opacity="1"><g transform="translate(249.139127, 180.626856)"><g><path d="M 11.703125 -18.578125 C 13.140625 -18.578125 14.425781 -18.273438 15.5625 -17.671875 C 16.707031 -17.078125 17.597656 -16.191406 18.234375 -15.015625 C 18.878906 -13.847656 19.203125 -12.4375 19.203125 -10.78125 L 19.203125 0 L 15.453125 0 L 15.453125 -10.21875 C 15.453125 -11.851562 15.039062 -13.109375 14.21875 -13.984375 C 13.40625 -14.859375 12.289062 -15.296875 10.875 -15.296875 C 9.457031 -15.296875 8.332031 -14.859375 7.5 -13.984375 C 6.675781 -13.109375 6.265625 -11.851562 6.265625 -10.21875 L 6.265625 0 L 2.484375 0 L 2.484375 -18.28125 L 6.265625 -18.28125 L 6.265625 -16.1875 C 6.890625 -16.9375 7.679688 -17.519531 8.640625 -17.9375 C 9.597656 -18.363281 10.617188 -18.578125 11.703125 -18.578125 Z M 11.703125 -18.578125 "/></g></g></g><g fill="#f5b400" fill-opacity="1"><g transform="translate(270.658585, 180.626856)"><g><path d="M 6.90625 -15.1875 L 6.90625 -5.078125 C 6.90625 -4.390625 7.0625 -3.894531 7.375 -3.59375 C 7.695312 -3.300781 8.242188 -3.15625 9.015625 -3.15625 L 11.34375 -3.15625 L 11.34375 0 L 8.359375 0 C 6.660156 0 5.351562 -0.394531 4.4375 -1.1875 C 3.53125 -1.988281 3.078125 -3.285156 3.078125 -5.078125 L 3.078125 -15.1875 L 0.921875 -15.1875 L 0.921875 -18.28125 L 3.078125 -18.28125 L 3.078125 -22.828125 L 6.90625 -22.828125 L 6.90625 -18.28125 L 11.34375 -18.28125 L 11.34375 -15.1875 Z M 6.90625 -15.1875 "/></g></g></g><g fill="#f5b400" fill-opacity="1"><g transform="translate(282.993312, 180.626856)"><g><path d="M 10.421875 0.296875 C 8.691406 0.296875 7.128906 -0.09375 5.734375 -0.875 C 4.347656 -1.664062 3.253906 -2.769531 2.453125 -4.1875 C 1.660156 -5.613281 1.265625 -7.269531 1.265625 -9.15625 C 1.265625 -11.007812 1.671875 -12.65625 2.484375 -14.09375 C 3.304688 -15.53125 4.425781 -16.632812 5.84375 -17.40625 C 7.257812 -18.1875 8.835938 -18.578125 10.578125 -18.578125 C 12.328125 -18.578125 13.910156 -18.1875 15.328125 -17.40625 C 16.742188 -16.632812 17.859375 -15.53125 18.671875 -14.09375 C 19.492188 -12.65625 19.90625 -11.007812 19.90625 -9.15625 C 19.90625 -7.300781 19.484375 -5.65625 18.640625 -4.21875 C 17.796875 -2.78125 16.648438 -1.664062 15.203125 -0.875 C 13.753906 -0.09375 12.160156 0.296875 10.421875 0.296875 Z M 10.421875 -2.984375 C 11.390625 -2.984375 12.300781 -3.210938 13.15625 -3.671875 C 14.007812 -4.140625 14.695312 -4.835938 15.21875 -5.765625 C 15.75 -6.703125 16.015625 -7.832031 16.015625 -9.15625 C 16.015625 -10.476562 15.757812 -11.597656 15.25 -12.515625 C 14.75 -13.441406 14.078125 -14.132812 13.234375 -14.59375 C 12.390625 -15.0625 11.484375 -15.296875 10.515625 -15.296875 C 9.546875 -15.296875 8.644531 -15.0625 7.8125 -14.59375 C 6.976562 -14.132812 6.316406 -13.441406 5.828125 -12.515625 C 5.347656 -11.597656 5.109375 -10.476562 5.109375 -9.15625 C 5.109375 -7.1875 5.609375 -5.664062 6.609375 -4.59375 C 7.617188 -3.519531 8.890625 -2.984375 10.421875 -2.984375 Z M 10.421875 -2.984375 "/></g></g></g><g fill="#f5b400" fill-opacity="1"><g transform="translate(304.148022, 180.626856)"><g><path d="M 19.046875 -18.28125 L 19.046875 0 L 15.265625 0 L 15.265625 -2.15625 C 14.660156 -1.40625 13.878906 -0.8125 12.921875 -0.375 C 11.960938 0.0507812 10.941406 0.265625 9.859375 0.265625 C 8.421875 0.265625 7.128906 -0.03125 5.984375 -0.625 C 4.847656 -1.226562 3.953125 -2.113281 3.296875 -3.28125 C 2.648438 -4.457031 2.328125 -5.875 2.328125 -7.53125 L 2.328125 -18.28125 L 6.078125 -18.28125 L 6.078125 -8.09375 C 6.078125 -6.457031 6.484375 -5.203125 7.296875 -4.328125 C 8.117188 -3.453125 9.234375 -3.015625 10.640625 -3.015625 C 12.054688 -3.015625 13.179688 -3.453125 14.015625 -4.328125 C 14.847656 -5.203125 15.265625 -6.457031 15.265625 -8.09375 L 15.265625 -18.28125 Z M 19.046875 -18.28125 "/></g></g></g><g fill="#f5b400" fill-opacity="1"><g transform="translate(325.667479, 180.626856)"><g><path d="M 6.90625 -15.1875 L 6.90625 -5.078125 C 6.90625 -4.390625 7.0625 -3.894531 7.375 -3.59375 C 7.695312 -3.300781 8.242188 -3.15625 9.015625 -3.15625 L 11.34375 -3.15625 L 11.34375 0 L 8.359375 0 C 6.660156 0 5.351562 -0.394531 4.4375 -1.1875 C 3.53125 -1.988281 3.078125 -3.285156 3.078125 -5.078125 L 3.078125 -15.1875 L 0.921875 -15.1875 L 0.921875 -18.28125 L 3.078125 -18.28125 L 3.078125 -22.828125 L 6.90625 -22.828125 L 6.90625 -18.28125 L 11.34375 -18.28125 L 11.34375 -15.1875 Z M 6.90625 -15.1875 "/></g></g></g><g fill="#f5b400" fill-opacity="1"><g transform="translate(338.002206, 180.626856)"><g><path d="M 9.125 0.296875 C 7.6875 0.296875 6.394531 0.0351562 5.25 -0.484375 C 4.113281 -1.003906 3.210938 -1.710938 2.546875 -2.609375 C 1.890625 -3.503906 1.539062 -4.503906 1.5 -5.609375 L 5.40625 -5.609375 C 5.46875 -4.828125 5.835938 -4.175781 6.515625 -3.65625 C 7.191406 -3.144531 8.039062 -2.890625 9.0625 -2.890625 C 10.113281 -2.890625 10.929688 -3.09375 11.515625 -3.5 C 12.109375 -3.90625 12.40625 -4.429688 12.40625 -5.078125 C 12.40625 -5.765625 12.078125 -6.269531 11.421875 -6.59375 C 10.773438 -6.925781 9.742188 -7.296875 8.328125 -7.703125 C 6.953125 -8.078125 5.832031 -8.441406 4.96875 -8.796875 C 4.113281 -9.148438 3.367188 -9.691406 2.734375 -10.421875 C 2.109375 -11.148438 1.796875 -12.109375 1.796875 -13.296875 C 1.796875 -14.273438 2.082031 -15.164062 2.65625 -15.96875 C 3.226562 -16.78125 4.050781 -17.414062 5.125 -17.875 C 6.195312 -18.34375 7.429688 -18.578125 8.828125 -18.578125 C 10.898438 -18.578125 12.570312 -18.050781 13.84375 -17 C 15.113281 -15.945312 15.796875 -14.515625 15.890625 -12.703125 L 12.109375 -12.703125 C 12.046875 -13.523438 11.710938 -14.175781 11.109375 -14.65625 C 10.515625 -15.144531 9.707031 -15.390625 8.6875 -15.390625 C 7.695312 -15.390625 6.9375 -15.203125 6.40625 -14.828125 C 5.875 -14.453125 5.609375 -13.953125 5.609375 -13.328125 C 5.609375 -12.847656 5.785156 -12.441406 6.140625 -12.109375 C 6.492188 -11.773438 6.921875 -11.515625 7.421875 -11.328125 C 7.929688 -11.140625 8.6875 -10.898438 9.6875 -10.609375 C 11.007812 -10.253906 12.097656 -9.894531 12.953125 -9.53125 C 13.804688 -9.164062 14.539062 -8.628906 15.15625 -7.921875 C 15.78125 -7.210938 16.101562 -6.273438 16.125 -5.109375 C 16.125 -4.066406 15.832031 -3.132812 15.25 -2.3125 C 14.675781 -1.5 13.863281 -0.859375 12.8125 -0.390625 C 11.769531 0.0664062 10.539062 0.296875 9.125 0.296875 Z M 9.125 0.296875 "/></g></g></g></svg>